<svg version="1.1" xmlns="http://www.w3.org/2000/svg" xmlns:xlink="http://www.w3.org/1999/xlink" width="1249.17431640625" height="346"><defs/><g><text fill="#eeeeee" stroke="none" font-family="Arial" font-size="24px" font-style="normal" font-weight="normal" text-decoration="none" x="0" y="0">UNREGISTERED</text><text fill="#eeeeee" stroke="none" font-family="Arial" font-size="24px" font-style="normal" font-weight="normal" text-decoration="none" x="0" y="30">UNREGISTERED</text><text fill="#eeeeee" stroke="none" font-family="Arial" font-size="24px" font-style="normal" font-weight="normal" text-decoration="none" x="0" y="60">UNREGISTERED</text><text fill="#eeeeee" stroke="none" font-family="Arial" font-size="24px" font-style="normal" font-weight="normal" text-decoration="none" x="0" y="90">UNREGISTERED</text><text fill="#eeeeee" stroke="none" font-family="Arial" font-size="24px" font-style="normal" font-weight="normal" text-decoration="none" x="0" y="120">UNREGISTERED</text><text fill="#eeeeee" stroke="none" font-family="Arial" font-size="24px" font-style="normal" font-weight="normal" text-decoration="none" x="0" y="150">UNREGISTERED</text><text fill="#eeeeee" stroke="none" font-family="Arial" font-size="24px" font-style="normal" font-weight="normal" text-decoration="none" x="0" y="180">UNREGISTERED</text><text fill="#eeeeee" stroke="none" font-family="Arial" font-size="24px" font-style="normal" font-weight="normal" text-decoration="none" x="0" y="210">UNREGISTERED</text><text fill="#eeeeee" stroke="none" font-family="Arial" font-size="24px" font-style="normal" font-weight="normal" text-decoration="none" x="0" y="240">UNREGISTERED</text><text fill="#eeeeee" stroke="none" font-family="Arial" font-size="24px" font-style="normal" font-weight="normal" text-decoration="none" x="0" y="270">UNREGISTERED</text><text fill="#eeeeee" stroke="none" font-family="Arial" font-size="24px" font-style="normal" font-weight="normal" text-decoration="none" x="0" y="300">UNREGISTERED</text><text fill="#eeeeee" stroke="none" font-family="Arial" font-size="24px" font-style="normal" font-weight="normal" text-decoration="none" x="0" y="330">UNREGISTERED</text><text fill="#eeeeee" stroke="none" font-family="Arial" font-size="24px" font-style="normal" font-weight="normal" text-decoration="none" x="200" y="0">UNREGISTERED</text><text fill="#eeeeee" stroke="none" font-family="Arial" font-size="24px" font-style="normal" font-weight="normal" text-decoration="none" x="200" y="30">UNREGISTERED</text><text fill="#eeeeee" stroke="none" font-family="Arial" font-size="24px" font-style="normal" font-weight="normal" text-decoration="none" x="200" y="60">UNREGISTERED</text><text fill="#eeeeee" stroke="none" font-family="Arial" font-size="24px" font-style="normal" font-weight="normal" text-decoration="none" x="200" y="90">UNREGISTERED</text><text fill="#eeeeee" stroke="none" font-family="Arial" font-size="24px" font-style="normal" font-weight="normal" text-decoration="none" x="200" y="120">UNREGISTERED</text><text fill="#eeeeee" stroke="none" font-family="Arial" font-size="24px" font-style="normal" font-weight="normal" text-decoration="none" x="200" y="150">UNREGISTERED</text><text fill="#eeeeee" stroke="none" font-family="Arial" font-size="24px" font-style="normal" font-weight="normal" text-decoration="none" x="200" y="180">UNREGISTERED</text><text fill="#eeeeee" stroke="none" font-family="Arial" font-size="24px" font-style="normal" font-weight="normal" text-decoration="none" x="200" y="210">UNREGISTERED</text><text fill="#eeeeee" stroke="none" font-family="Arial" font-size="24px" font-style="normal" font-weight="normal" text-decoration="none" x="200" y="240">UNREGISTERED</text><text fill="#eeeeee" stroke="none" font-family="Arial" font-size="24px" font-style="normal" font-weight="normal" text-decoration="none" x="200" y="270">UNREGISTERED</text><text fill="#eeeeee" stroke="none" font-family="Arial" font-size="24px" font-style="normal" font-weight="normal" text-decoration="none" x="200" y="300">UNREGISTERED</text><text fill="#eeeeee" stroke="none" font-family="Arial" font-size="24px" font-style="normal" font-weight="normal" text-decoration="none" x="200" y="330">UNREGISTERED</text><text fill="#eeeeee" stroke="none" font-family="Arial" font-size="24px" font-style="normal" font-weight="normal" text-decoration="none" x="400" y="0">UNREGISTERED</text><text fill="#eeeeee" stroke="none" font-family="Arial" font-size="24px" font-style="normal" font-weight="normal" text-decoration="none" x="400" y="30">UNREGISTERED</text><text fill="#eeeeee" stroke="none" font-family="Arial" font-size="24px" font-style="normal" font-weight="normal" text-decoration="none" x="400" y="60">UNREGISTERED</text><text fill="#eeeeee" stroke="none" font-family="Arial" font-size="24px" font-style="normal" font-weight="normal" text-decoration="none" x="400" y="90">UNREGISTERED</text><text fill="#eeeeee" stroke="none" font-family="Arial" font-size="24px" font-style="normal" font-weight="normal" text-decoration="none" x="400" y="120">UNREGISTERED</text><text fill="#eeeeee" stroke="none" font-family="Arial" font-size="24px" font-style="normal" font-weight="normal" text-decoration="none" x="400" y="150">UNREGISTERED</text><text fill="#eeeeee" stroke="none" font-family="Arial" font-size="24px" font-style="normal" font-weight="normal" text-decoration="none" x="400" y="180">UNREGISTERED</text><text fill="#eeeeee" stroke="none" font-family="Arial" font-size="24px" font-style="normal" font-weight="normal" text-decoration="none" x="400" y="210">UNREGISTERED</text><text fill="#eeeeee" stroke="none" font-family="Arial" font-size="24px" font-style="normal" font-weight="normal" text-decoration="none" x="400" y="240">UNREGISTERED</text><text fill="#eeeeee" stroke="none" font-family="Arial" font-size="24px" font-style="normal" font-weight="normal" text-decoration="none" x="400" y="270">UNREGISTERED</text><text fill="#eeeeee" stroke="none" font-family="Arial" font-size="24px" font-style="normal" font-weight="normal" text-decoration="none" x="400" y="300">UNREGISTERED</text><text fill="#eeeeee" stroke="none" font-family="Arial" font-size="24px" font-style="normal" font-weight="normal" text-decoration="none" x="400" y="330">UNREGISTERED</text><text fill="#eeeeee" stroke="none" font-family="Arial" font-size="24px" font-style="normal" font-weight="normal" text-decoration="none" x="600" y="0">UNREGISTERED</text><text fill="#eeeeee" stroke="none" font-family="Arial" font-size="24px" font-style="normal" font-weight="normal" text-decoration="none" x="600" y="30">UNREGISTERED</text><text fill="#eeeeee" stroke="none" font-family="Arial" font-size="24px" font-style="normal" font-weight="normal" text-decoration="none" x="600" y="60">UNREGISTERED</text><text fill="#eeeeee" stroke="none" font-family="Arial" font-size="24px" font-style="normal" font-weight="normal" text-decoration="none" x="600" y="90">UNREGISTERED</text><text fill="#eeeeee" stroke="none" font-family="Arial" font-size="24px" font-style="normal" font-weight="normal" text-decoration="none" x="600" y="120">UNREGISTERED</text><text fill="#eeeeee" stroke="none" font-family="Arial" font-size="24px" font-style="normal" font-weight="normal" text-decoration="none" x="600" y="150">UNREGISTERED</text><text fill="#eeeeee" stroke="none" font-family="Arial" font-size="24px" font-style="normal" font-weight="normal" text-decoration="none" x="600" y="180">UNREGISTERED</text><text fill="#eeeeee" stroke="none" font-family="Arial" font-size="24px" font-style="normal" font-weight="normal" text-decoration="none" x="600" y="210">UNREGISTERED</text><text fill="#eeeeee" stroke="none" font-family="Arial" font-size="24px" font-style="normal" font-weight="normal" text-decoration="none" x="600" y="240">UNREGISTERED</text><text fill="#eeeeee" stroke="none" font-family="Arial" font-size="24px" font-style="normal" font-weight="normal" text-decoration="none" x="600" y="270">UNREGISTERED</text><text fill="#eeeeee" stroke="none" font-family="Arial" font-size="24px" font-style="normal" font-weight="normal" text-decoration="none" x="600" y="300">UNREGISTERED</text><text fill="#eeeeee" stroke="none" font-family="Arial" font-size="24px" font-style="normal" font-weight="normal" text-decoration="none" x="600" y="330">UNREGISTERED</text><text fill="#eeeeee" stroke="none" font-family="Arial" font-size="24px" font-style="normal" font-weight="normal" text-decoration="none" x="800" y="0">UNREGISTERED</text><text fill="#eeeeee" stroke="none" font-family="Arial" font-size="24px" font-style="normal" font-weight="normal" text-decoration="none" x="800" y="30">UNREGISTERED</text><text fill="#eeeeee" stroke="none" font-family="Arial" font-size="24px" font-style="normal" font-weight="normal" text-decoration="none" x="800" y="60">UNREGISTERED</text><text fill="#eeeeee" stroke="none" font-family="Arial" font-size="24px" font-style="normal" font-weight="normal" text-decoration="none" x="800" y="90">UNREGISTERED</text><text fill="#eeeeee" stroke="none" font-family="Arial" font-size="24px" font-style="normal" font-weight="normal" text-decoration="none" x="800" y="120">UNREGISTERED</text><text fill="#eeeeee" stroke="none" font-family="Arial" font-size="24px" font-style="normal" font-weight="normal" text-decoration="none" x="800" y="150">UNREGISTERED</text><text fill="#eeeeee" stroke="none" font-family="Arial" font-size="24px" font-style="normal" font-weight="normal" text-decoration="none" x="800" y="180">UNREGISTERED</text><text fill="#eeeeee" stroke="none" font-family="Arial" font-size="24px" font-style="normal" font-weight="normal" text-decoration="none" x="800" y="210">UNREGISTERED</text><text fill="#eeeeee" stroke="none" font-family="Arial" font-size="24px" font-style="normal" font-weight="normal" text-decoration="none" x="800" y="240">UNREGISTERED</text><text fill="#eeeeee" stroke="none" font-family="Arial" font-size="24px" font-style="normal" font-weight="normal" text-decoration="none" x="800" y="270">UNREGISTERED</text><text fill="#eeeeee" stroke="none" font-family="Arial" font-size="24px" font-style="normal" font-weight="normal" text-decoration="none" x="800" y="300">UNREGISTERED</text><text fill="#eeeeee" stroke="none" font-family="Arial" font-size="24px" font-style="normal" font-weight="normal" text-decoration="none" x="800" y="330">UNREGISTERED</text><text fill="#eeeeee" stroke="none" font-family="Arial" font-size="24px" font-style="normal" font-weight="normal" text-decoration="none" x="1000" y="0">UNREGISTERED</text><text fill="#eeeeee" stroke="none" font-family="Arial" font-size="24px" font-style="normal" font-weight="normal" text-decoration="none" x="1000" y="30">UNREGISTERED</text><text fill="#eeeeee" stroke="none" font-family="Arial" font-size="24px" font-style="normal" font-weight="normal" text-decoration="none" x="1000" y="60">UNREGISTERED</text><text fill="#eeeeee" stroke="none" font-family="Arial" font-size="24px" font-style="normal" font-weight="normal" text-decoration="none" x="1000" y="90">UNREGISTERED</text><text fill="#eeeeee" stroke="none" font-family="Arial" font-size="24px" font-style="normal" font-weight="normal" text-decoration="none" x="1000" y="120">UNREGISTERED</text><text fill="#eeeeee" stroke="none" font-family="Arial" font-size="24px" font-style="normal" font-weight="normal" text-decoration="none" x="1000" y="150">UNREGISTERED</text><text fill="#eeeeee" stroke="none" font-family="Arial" font-size="24px" font-style="normal" font-weight="normal" text-decoration="none" x="1000" y="180">UNREGISTERED</text><text fill="#eeeeee" stroke="none" font-family="Arial" font-size="24px" font-style="normal" font-weight="normal" text-decoration="none" x="1000" y="210">UNREGISTERED</text><text fill="#eeeeee" stroke="none" font-family="Arial" font-size="24px" font-style="normal" font-weight="normal" text-decoration="none" x="1000" y="240">UNREGISTERED</text><text fill="#eeeeee" stroke="none" font-family="Arial" font-size="24px" font-style="normal" font-weight="normal" text-decoration="none" x="1000" y="270">UNREGISTERED</text><text fill="#eeeeee" stroke="none" font-family="Arial" font-size="24px" font-style="normal" font-weight="normal" text-decoration="none" x="1000" y="300">UNREGISTERED</text><text fill="#eeeeee" stroke="none" font-family="Arial" font-size="24px" font-style="normal" font-weight="normal" text-decoration="none" x="1000" y="330">UNREGISTERED</text><text fill="#eeeeee" stroke="none" font-family="Arial" font-size="24px" font-style="normal" font-weight="normal" text-decoration="none" x="1200" y="0">UNREGISTERED</text><text fill="#eeeeee" stroke="none" font-family="Arial" font-size="24px" font-style="normal" font-weight="normal" text-decoration="none" x="1200" y="30">UNREGISTERED</text><text fill="#eeeeee" stroke="none" font-family="Arial" font-size="24px" font-style="normal" font-weight="normal" text-decoration="none" x="1200" y="60">UNREGISTERED</text><text fill="#eeeeee" stroke="none" font-family="Arial" font-size="24px" font-style="normal" font-weight="normal" text-decoration="none" x="1200" y="90">UNREGISTERED</text><text fill="#eeeeee" stroke="none" font-family="Arial" font-size="24px" font-style="normal" font-weight="normal" text-decoration="none" x="1200" y="120">UNREGISTERED</text><text fill="#eeeeee" stroke="none" font-family="Arial" font-size="24px" font-style="normal" font-weight="normal" text-decoration="none" x="1200" y="150">UNREGISTERED</text><text fill="#eeeeee" stroke="none" font-family="Arial" font-size="24px" font-style="normal" font-weight="normal" text-decoration="none" x="1200" y="180">UNREGISTERED</text><text fill="#eeeeee" stroke="none" font-family="Arial" font-size="24px" font-style="normal" font-weight="normal" text-decoration="none" x="1200" y="210">UNREGISTERED</text><text fill="#eeeeee" stroke="none" font-family="Arial" font-size="24px" font-style="normal" font-weight="normal" text-decoration="none" x="1200" y="240">UNREGISTERED</text><text fill="#eeeeee" stroke="none" font-family="Arial" font-size="24px" font-style="normal" font-weight="normal" text-decoration="none" x="1200" y="270">UNREGISTERED</text><text fill="#eeeeee" stroke="none" font-family="Arial" font-size="24px" font-style="normal" font-weight="normal" text-decoration="none" x="1200" y="300">UNREGISTERED</text><text fill="#eeeeee" stroke="none" font-family="Arial" font-size="24px" font-style="normal" font-weight="normal" text-decoration="none" x="1200" y="330">UNREGISTERED</text><g transform="translate(-310,-198) scale(1,1)"><rect fill="#C0C0C0" stroke="none" x="1403" y="420" width="153.17431640625" height="115" opacity="0.2"/></g><g transform="translate(-310,-198) scale(1,1)"><rect fill="#ffffff" stroke="none" x="1396" y="413" width="153.17431640625" height="115"/></g><g transform="translate(-310,-198) scale(1,1)"><path fill="none" stroke="#000000" d="M 1396 413 L 1549.17431640625 413 L 1549.17431640625 528 L 1396 528 L 1396 413 Z Z" stroke-miterlimit="10"/></g><g transform="translate(-310,-198) scale(1,1)"><path fill="none" stroke="#000000" d="M 1396 451 L 1549.17431640625 451" stroke-miterlimit="10"/></g><g transform="translate(-310,-198) scale(1,1)"><path fill="none" stroke="#000000" d="M 1396 519 L 1549.17431640625 519" stroke-miterlimit="10"/></g><g transform="translate(-310,-198) scale(1,1)"><g><path fill="none" stroke="none"/><text fill="#000000" stroke="none" font-family="Arial" font-size="13px" font-style="normal" font-weight="normal" text-decoration="none" x="1447.653564453125" y="430.5">«model»</text></g></g><g transform="translate(-310,-198) scale(1,1)"><g><path fill="none" stroke="none"/><text fill="#000000" stroke="none" font-family="Arial" font-size="13px" font-style="normal" font-weight="bold" text-decoration="none" x="1439.706298828125" y="445.5">Evenement</text></g></g><g transform="translate(-310,-198) scale(1,1)"><g><path fill="none" stroke="none"/><text fill="#000000" stroke="none" font-family="Arial" font-size="13px" font-style="normal" font-weight="normal" text-decoration="none" x="1401" y="468.5">+id_evenement: long</text></g></g><g transform="translate(-310,-198) scale(1,1)"><g><path fill="none" stroke="none"/><text fill="#000000" stroke="none" font-family="Arial" font-size="13px" font-style="normal" font-weight="normal" text-decoration="none" x="1401" y="483.5">+nom_evenement: name</text></g></g><g transform="translate(-310,-198) scale(1,1)"><g><path fill="none" stroke="none"/><text fill="#000000" stroke="none" font-family="Arial" font-size="13px" font-style="normal" font-weight="normal" text-decoration="none" x="1401" y="498.5">+date_debut: Date</text></g></g><g transform="translate(-310,-198) scale(1,1)"><g><path fill="none" stroke="none"/><text fill="#000000" stroke="none" font-family="Arial" font-size="13px" font-style="normal" font-weight="normal" text-decoration="none" x="1401" y="513.5">+date_fin: Date</text></g></g><g transform="translate(-310,-198) scale(1,1)"><rect fill="#C0C0C0" stroke="none" x="1071" y="335" width="99.3017578125" height="44" opacity="0.2"/></g><g transform="translate(-310,-198) scale(1,1)"><rect fill="#ffffff" stroke="none" x="1064" y="328" width="99.3017578125" height="44"/></g><g transform="translate(-310,-198) scale(1,1)"><path fill="none" stroke="#000000" d="M 1064 328 L 1163.3017578125 328 L 1163.3017578125 372 L 1064 372 L 1064 328 Z Z" stroke-miterlimit="10"/></g><g transform="translate(-310,-198) scale(1,1)"><path fill="none" stroke="#000000" d="M 1064 353 L 1163.3017578125 353" stroke-miterlimit="10"/></g><g transform="translate(-310,-198) scale(1,1)"><path fill="none" stroke="#000000" d="M 1064 363 L 1163.3017578125 363" stroke-miterlimit="10"/></g><g transform="translate(-310,-198) scale(1,1)"><g><path fill="none" stroke="none"/><text fill="#000000" stroke="none" font-family="Arial" font-size="13px" font-style="normal" font-weight="bold" text-decoration="none" x="1072.102294921875" y="347.5">JpaRepository</text></g></g><g transform="translate(-310,-198) scale(1,1)"><rect fill="#C0C0C0" stroke="none" x="327" y="215" width="392.322265625" height="113" opacity="0.2"/></g><g transform="translate(-310,-198) scale(1,1)"><rect fill="#ffffff" stroke="none" x="320" y="208" width="392.322265625" height="113"/></g><g transform="translate(-310,-198) scale(1,1)"><path fill="none" stroke="#000000" d="M 320 208 L 712.322265625 208 L 712.322265625 321 L 320 321 L 320 208 Z Z" stroke-miterlimit="10"/></g><g transform="translate(-310,-198) scale(1,1)"><path fill="none" stroke="#000000" d="M 320 246 L 712.322265625 246" stroke-miterlimit="10"/></g><g transform="translate(-310,-198) scale(1,1)"><path fill="none" stroke="#000000" d="M 320 299 L 712.322265625 299" stroke-miterlimit="10"/></g><g transform="translate(-310,-198) scale(1,1)"><g><path fill="none" stroke="none"/><text fill="#000000" stroke="none" font-family="Arial" font-size="13px" font-style="normal" font-weight="normal" text-decoration="none" x="491.5830078125" y="225.5">«dialog»</text></g></g><g transform="translate(-310,-198) scale(1,1)"><g><path fill="none" stroke="none"/><text fill="#000000" stroke="none" font-family="Arial" font-size="13px" font-style="normal" font-weight="bold" text-decoration="none" x="458.349853515625" y="240.5">addEvenement.html</text></g></g><g transform="translate(-310,-198) scale(1,1)"><g><path fill="none" stroke="none"/><text fill="#000000" stroke="none" font-family="Arial" font-size="13px" font-style="normal" font-weight="normal" text-decoration="none" x="325" y="263.5">+nomEvenement: String</text></g></g><g transform="translate(-310,-198) scale(1,1)"><g><path fill="none" stroke="none"/><text fill="#000000" stroke="none" font-family="Arial" font-size="13px" font-style="normal" font-weight="normal" text-decoration="none" x="325" y="278.5">+dateDebut: Date</text></g></g><g transform="translate(-310,-198) scale(1,1)"><g><path fill="none" stroke="none"/><text fill="#000000" stroke="none" font-family="Arial" font-size="13px" font-style="normal" font-weight="normal" text-decoration="none" x="325" y="293.5">+dateFin: Date</text></g></g><g transform="translate(-310,-198) scale(1,1)"><g><path fill="none" stroke="none"/><text fill="#000000" stroke="none" font-family="Arial" font-size="13px" font-style="normal" font-weight="normal" text-decoration="none" x="325" y="316.5">+submit(nomEvenement, datedebut, datefin)</text></g></g><g transform="translate(-310,-198) scale(1,1)"><rect fill="#C0C0C0" stroke="none" x="399" y="455" width="219.6533203125" height="70" opacity="0.2"/></g><g transform="translate(-310,-198) scale(1,1)"><rect fill="#ffffff" stroke="none" x="392" y="448" width="219.6533203125" height="70"/></g><g transform="translate(-310,-198) scale(1,1)"><path fill="none" stroke="#000000" d="M 392 448 L 611.6533203125 448 L 611.6533203125 518 L 392 518 L 392 448 Z Z" stroke-miterlimit="10"/></g><g transform="translate(-310,-198) scale(1,1)"><path fill="none" stroke="#000000" d="M 392 486 L 611.6533203125 486" stroke-miterlimit="10"/></g><g transform="translate(-310,-198) scale(1,1)"><path fill="none" stroke="#000000" d="M 392 496 L 611.6533203125 496" stroke-miterlimit="10"/></g><g transform="translate(-310,-198) scale(1,1)"><g><path fill="none" stroke="none"/><text fill="#000000" stroke="none" font-family="Arial" font-size="13px" font-style="normal" font-weight="normal" text-decoration="none" x="475.087158203125" y="465.5">«control»</text></g></g><g transform="translate(-310,-198) scale(1,1)"><g><path fill="none" stroke="none"/><text fill="#000000" stroke="none" font-family="Arial" font-size="13px" font-style="normal" font-weight="bold" text-decoration="none" x="440.7685546875" y="480.5">EvenementController</text></g></g><g transform="translate(-310,-198) scale(1,1)"><g><path fill="none" stroke="none"/><text fill="#000000" stroke="none" font-family="Arial" font-size="13px" font-style="normal" font-weight="normal" text-decoration="none" x="397" y="513.5">+addEvenement(evenement, model)</text></g></g><g transform="translate(-310,-198) scale(1,1)"><rect fill="#C0C0C0" stroke="none" x="759" y="471" width="186.404296875" height="70" opacity="0.2"/></g><g transform="translate(-310,-198) scale(1,1)"><rect fill="#ffffff" stroke="none" x="752" y="464" width="186.404296875" height="70"/></g><g transform="translate(-310,-198) scale(1,1)"><path fill="none" stroke="#000000" d="M 752 464 L 938.404296875 464 L 938.404296875 534 L 752 534 L 752 464 Z Z" stroke-miterlimit="10"/></g><g transform="translate(-310,-198) scale(1,1)"><path fill="none" stroke="#000000" d="M 752 502 L 938.404296875 502" stroke-miterlimit="10"/></g><g transform="translate(-310,-198) scale(1,1)"><path fill="none" stroke="#000000" d="M 752 512 L 938.404296875 512" stroke-miterlimit="10"/></g><g transform="translate(-310,-198) scale(1,1)"><g><path fill="none" stroke="none"/><text fill="#000000" stroke="none" font-family="Arial" font-size="13px" font-style="normal" font-weight="normal" text-decoration="none" x="817.383544921875" y="481.5">«service»</text></g></g><g transform="translate(-310,-198) scale(1,1)"><g><path fill="none" stroke="none"/><text fill="#000000" stroke="none" font-family="Arial" font-size="13px" font-style="normal" font-weight="bold" text-decoration="none" x="778.36767578125" y="496.5">EvenementServiceImpl</text></g></g><g transform="translate(-310,-198) scale(1,1)"><g><path fill="none" stroke="none"/><text fill="#000000" stroke="none" font-family="Arial" font-size="13px" font-style="normal" font-weight="normal" text-decoration="none" x="757" y="529.5">+Evenement save(evenement)</text></g></g><g transform="translate(-310,-198) scale(1,1)"><path fill="#C0C0C0" stroke="none" d="M 1108.630859375 466.5 C 1108.630859375 460.1487248 1113.779584175 455 1120.130859375 455 C 1126.482134575 455 1131.630859375 460.1487248 1131.630859375 466.5 C 1131.630859375 472.8512752 1126.482134575 478 1120.130859375 478 C 1113.779584175 478 1108.630859375 472.8512752 1108.630859375 466.5 Z" opacity="0.2"/></g><g transform="translate(-310,-198) scale(1,1)"><path fill="#ffffff" stroke="none" d="M 1101.630859375 459.5 C 1101.630859375 453.1487248 1106.779584175 448 1113.130859375 448 C 1119.482134575 448 1124.630859375 453.1487248 1124.630859375 459.5 C 1124.630859375 465.8512752 1119.482134575 471 1113.130859375 471 C 1106.779584175 471 1101.630859375 465.8512752 1101.630859375 459.5 Z"/></g><g transform="translate(-310,-198) scale(1,1)"><path fill="none" stroke="#000000" d="M 1101.630859375 459.5 C 1101.630859375 453.1487248 1106.779584175 448 1113.130859375 448 C 1119.482134575 448 1124.630859375 453.1487248 1124.630859375 459.5 C 1124.630859375 465.8512752 1119.482134575 471 1113.130859375 471 C 1106.779584175 471 1101.630859375 465.8512752 1101.630859375 459.5 Z" stroke-miterlimit="10"/></g><g transform="translate(-310,-198) scale(1,1)"><g><path fill="none" stroke="none"/><text fill="#000000" stroke="none" font-family="Arial" font-size="13px" font-style="normal" font-weight="bold" text-decoration="none" x="1049.181396484375" y="490.5">EvenementRepository</text></g></g><g transform="translate(-310,-198) scale(1,1)"><path fill="none" stroke="#000000" d="M 1113 447 L 1113 373" stroke-miterlimit="10"/></g><g transform="translate(-310,-198) scale(1,1)"><path fill="#FFFFFF" stroke="none" d="M 1121.419035512032 393.3253497152483 L 1113 373 L 1104.580964487968 393.3253497152483"/></g><g transform="translate(-310,-198) scale(1,1)"><path fill="none" stroke="#000000" d="M 1121.419035512032 393.3253497152483 L 1113 373 L 1104.580964487968 393.3253497152483 L 1121.419035512032 393.3253497152483" stroke-miterlimit="10"/></g><g transform="translate(-310,-198) scale(1,1)"><path fill="none" stroke="#000000" d="M 1040 475 L 938 475" stroke-miterlimit="10"/></g><g transform="translate(-310,-198) scale(1,1)"><path fill="none" stroke="#000000" d="M 1186 472 L 1396 472" stroke-miterlimit="10"/></g><g transform="translate(-310,-198) scale(1,1)"><path fill="none" stroke="#000000" d="M 612 495 L 752 495" stroke-miterlimit="10"/></g><g transform="translate(-310,-198) scale(1,1)"><path fill="none" stroke="#000000" d="M 511 448 L 511 321" stroke-miterlimit="10"/></g><g transform="translate(-310,-198) scale(1,1)"><path fill="#C0C0C0" stroke="none" d="M 832.054931640625 370.5 C 832.054931640625 364.1487248 837.203656440625 359 843.554931640625 359 C 849.906206840625 359 855.054931640625 364.1487248 855.054931640625 370.5 C 855.054931640625 376.8512752 849.906206840625 382 843.554931640625 382 C 837.203656440625 382 832.054931640625 376.8512752 832.054931640625 370.5 Z" opacity="0.2"/></g><g transform="translate(-310,-198) scale(1,1)"><path fill="#ffffff" stroke="none" d="M 825.054931640625 363.5 C 825.054931640625 357.1487248 830.203656440625 352 836.554931640625 352 C 842.906206840625 352 848.054931640625 357.1487248 848.054931640625 363.5 C 848.054931640625 369.8512752 842.906206840625 375 836.554931640625 375 C 830.203656440625 375 825.054931640625 369.8512752 825.054931640625 363.5 Z"/></g><g transform="translate(-310,-198) scale(1,1)"><path fill="none" stroke="#000000" d="M 825.054931640625 363.5 C 825.054931640625 357.1487248 830.203656440625 352 836.554931640625 352 C 842.906206840625 352 848.054931640625 357.1487248 848.054931640625 363.5 C 848.054931640625 369.8512752 842.906206840625 375 836.554931640625 375 C 830.203656440625 375 825.054931640625 369.8512752 825.054931640625 363.5 Z" stroke-miterlimit="10"/></g><g transform="translate(-310,-198) scale(1,1)"><g><path fill="none" stroke="none"/><text fill="#000000" stroke="none" font-family="Arial" font-size="13px" font-style="normal" font-weight="bold" text-decoration="none" x="791.0390625" y="394.5">ServiceImpl&lt;T&gt;</text></g></g><g transform="translate(-310,-198) scale(1,1)"><path fill="none" stroke="#000000" d="M 836 464 L 836 375" stroke-miterlimit="10"/></g></g></svg>